<svg width="40" height="40" viewBox="0 0 40 40" fill="none" xmlns="http://www.w3.org/2000/svg">
<rect x="1" y="1" width="38" height="38" rx="7" fill="#0D0E10"/>
<rect x="1" y="1" width="38" height="38" rx="7" stroke="white" stroke-width="2"/>
<path fill-rule="evenodd" clip-rule="evenodd" d="M21.9133 10.4932C22.6711 10.1664 23.4832 9.99817 24.3034 9.99817C25.1236 9.99817 25.9357 10.1664 26.6934 10.4932C27.451 10.82 28.1393 11.299 28.7191 11.9027C29.299 12.5063 29.7594 13.2232 30.0733 14.0118C30.3872 14.8007 30.5488 15.6461 30.5488 16.5C30.5488 17.3538 30.3872 18.1993 30.0733 18.9881C29.7593 19.7769 29.2992 20.4935 28.7192 21.0971C28.7192 21.0972 28.7193 21.097 28.7192 21.0971L20.2278 29.9371C19.8527 30.3276 19.2445 30.3276 18.8693 29.9371L10.3779 21.0971C9.20677 19.8779 8.54883 18.2242 8.54883 16.5C8.54883 14.7757 9.20677 13.1221 10.3779 11.9029C11.5491 10.6837 13.1375 9.9987 14.7938 9.9987C16.45 9.9987 18.0384 10.6837 19.2096 11.9029L19.5486 12.2558L19.8874 11.9031C19.8873 11.9031 19.8874 11.903 19.8874 11.9031C20.4672 11.2992 21.1557 10.8201 21.9133 10.4932ZM24.3034 11.9982C23.7356 11.9982 23.1733 12.1146 22.6487 12.3409C22.1242 12.5672 21.6476 12.8988 21.2462 13.3169L20.2278 14.3771C19.8527 14.7676 19.2445 14.7676 18.8693 14.3771L17.8511 13.3171C17.0403 12.4729 15.9405 11.9987 14.7938 11.9987C13.647 11.9987 12.5472 12.4729 11.7364 13.3171C10.9255 14.1613 10.47 15.3062 10.47 16.5C10.47 17.6938 10.9255 18.8387 11.7364 19.6829L19.5486 27.8158L27.3608 19.6829C27.7624 19.265 28.0811 18.7687 28.2985 18.2226C28.5158 17.6765 28.6277 17.0911 28.6277 16.5C28.6277 15.9089 28.5158 15.3235 28.2985 14.7774C28.0811 14.2313 27.7625 13.7352 27.3609 13.3173C26.9595 12.8992 26.4826 12.5672 25.958 12.3409C25.4335 12.1146 24.8712 11.9982 24.3034 11.9982Z" fill="white"/>
</svg>
