<svg width="40" height="40" viewBox="0 0 40 40" fill="none" xmlns="http://www.w3.org/2000/svg">
<rect width="40" height="40" rx="8" fill="#0D0E10"/>
<path fill-rule="evenodd" clip-rule="evenodd" d="M20.6139 9.21065C20.2528 8.92978 19.7472 8.92978 19.3861 9.21065L10.3861 16.2106C10.1425 16.4001 10 16.6914 10 17V28C10 28.7957 10.3161 29.5587 10.8787 30.1213C11.4413 30.6839 12.2043 31 13 31H27C27.7957 31 28.5587 30.6839 29.1213 30.1213C29.6839 29.5587 30 28.7957 30 28V17C30 16.6914 29.8575 16.4001 29.6139 16.2106L20.6139 9.21065ZM12 28V17.4891L20 11.2669L28 17.4891V28C28 28.2652 27.8946 28.5196 27.7071 28.7071C27.5196 28.8946 27.2652 29 27 29H24V20C24 19.4477 23.5523 19 23 19H17C16.4477 19 16 19.4477 16 20V29H13C12.7348 29 12.4804 28.8946 12.2929 28.7071C12.1054 28.5196 12 28.2652 12 28ZM18 29H22V21H18V29Z" fill="white"/>
</svg>
