<svg width="40" height="40" viewBox="0 0 40 40" fill="none" xmlns="http://www.w3.org/2000/svg">
<rect width="40" height="40" rx="8" fill="#0D0E10"/>
<path fill-rule="evenodd" clip-rule="evenodd" d="M20 11C20.5523 11 21 11.4477 21 12V28C21 28.5523 20.5523 29 20 29C19.4477 29 19 28.5523 19 28V12C19 11.4477 19.4477 11 20 11ZM26 17C26.5523 17 27 17.4477 27 18V28C27 28.5523 26.5523 29 26 29C25.4477 29 25 28.5523 25 28V18C25 17.4477 25.4477 17 26 17ZM15 22C15 21.4477 14.5523 21 14 21C13.4477 21 13 21.4477 13 22V28C13 28.5523 13.4477 29 14 29C14.5523 29 15 28.5523 15 28V22Z" fill="white"/>
</svg>
